<svg width="50" height="50" viewBox="0 0 50 50" fill="none" xmlns="http://www.w3.org/2000/svg">
<circle cx="25" cy="25" r="24" stroke="#F9F8F5" stroke-width="1.5"/>
<path d="M11.6926 23.546V28.6H12.7146V24.26H12.7286L14.7516 28.6H16.1376L18.1116 24.26H18.1256V28.6H19.2596V23.546H17.3696L15.4936 27.662L13.5826 23.546H11.6926ZM25.1872 23.546H21.1832V28.6H25.3132V27.774H22.3172V26.388H25.0822V25.562H22.3172V24.372H25.1872V23.546ZM27.0926 28.6H28.1146V24.652H28.1286L31.0616 28.6H32.5876V23.546H31.5656V27.424H31.5516L28.6886 23.546H27.0926V28.6ZM34.4839 26.787C34.4839 28.11 35.6249 28.733 36.8499 28.733C39.0759 28.733 39.5589 27.739 39.5589 26.584V23.546H38.4249V26.605C38.4249 27.536 37.8649 27.949 37.0249 27.949C36.1569 27.949 35.6179 27.473 35.6179 26.633V23.546H34.4839V26.787Z" fill="#F9F8F5"/>
</svg>
