<svg width="50" height="50" viewBox="0 0 50 50" fill="none" xmlns="http://www.w3.org/2000/svg">
<circle cx="25" cy="25" r="24" stroke="#2B2B2B" stroke-width="1.5"/>
<path d="M15.2225 25.1491C15.1665 23.7911 13.7665 23.4131 12.6955 23.4131C10.9455 23.4131 9.8605 24.3721 9.8605 26.0731C9.8605 27.8441 10.9455 28.7331 12.6255 28.7331C13.9275 28.7331 15.1945 28.3271 15.2855 26.9831H14.1095C14.0465 27.4101 13.6405 27.9071 12.7095 27.9071C12.0025 27.9071 11.0365 27.4801 11.0365 26.0731C11.0365 24.6661 12.0025 24.2391 12.7095 24.2391C13.3255 24.2391 14.0185 24.5191 14.0465 25.1491H15.2225ZM16.9562 28.6001H20.8692V27.7741H18.0902V23.5461H16.9562V28.6001ZM22.1501 26.0731C22.1501 27.8441 23.2351 28.7331 25.0971 28.7331C26.9591 28.7331 28.0441 27.8441 28.0441 26.0731C28.0441 24.3021 26.9591 23.4131 25.0971 23.4131C23.2351 23.4131 22.1501 24.3021 22.1501 26.0731ZM23.3261 26.0731C23.3261 24.8831 24.0051 24.2391 25.0971 24.2391C26.1961 24.2391 26.8681 24.8831 26.8681 26.0731C26.8681 27.2631 26.1961 27.9071 25.0971 27.9071C24.0051 27.9071 23.3261 27.2631 23.3261 26.0731ZM29.5272 27.0181C29.5272 28.1031 30.4442 28.7331 31.9072 28.7331C33.6222 28.7331 34.5182 28.1171 34.5182 27.0741C34.5182 26.5491 34.2662 25.8421 33.0622 25.6741L31.6132 25.4711C31.1652 25.4081 30.8782 25.2471 30.8782 24.8551C30.8782 24.3931 31.3962 24.1621 31.8652 24.1621C32.6492 24.1621 33.1042 24.4001 33.1462 25.0581H34.2802C34.2452 24.0361 33.4472 23.4131 31.9702 23.4131C30.7942 23.4131 29.7022 23.8821 29.7022 25.0511C29.7022 25.7161 30.1432 26.2831 31.4802 26.4651L32.5232 26.6051C33.0832 26.6821 33.3422 26.8501 33.3422 27.2141C33.3422 27.5781 32.9992 27.9841 32.0612 27.9841C31.1652 27.9841 30.7242 27.6201 30.6612 27.0181H29.5272ZM40.1842 23.5461H36.1802V28.6001H40.3102V27.7741H37.3142V26.3881H40.0792V25.5621H37.3142V24.3721H40.1842V23.5461Z" fill="#2B2B2B"/>
</svg>
